<svg id="Layer_1" data-name="Layer 1" xmlns="http://www.w3.org/2000/svg" xmlns:xlink="http://www.w3.org/1999/xlink" viewBox="0 0 144.43 118.43"><defs><style>.cls-1,.cls-3{stroke:#f2f2f2;}.cls-1,.cls-2,.cls-3,.cls-4{stroke-miterlimit:10;stroke-width:0.5px;}.cls-1{fill:url(#linear-gradient);}.cls-2{fill:#fff;}.cls-2,.cls-4{stroke:#000;}.cls-3{fill:url(#linear-gradient-2);}.cls-4{fill:none;}</style><linearGradient id="linear-gradient" x1="213.16" y1="133.83" x2="357.09" y2="133.83" gradientUnits="userSpaceOnUse"><stop offset="0" stop-color="#6acfff"/><stop offset="1" stop-color="#8f5399"/></linearGradient><linearGradient id="linear-gradient-2" x1="216.84" y1="103.81" x2="276.45" y2="103.81" gradientUnits="userSpaceOnUse"><stop offset="0.12" stop-color="#006837"/><stop offset="0.37" stop-color="#138c5d"/><stop offset="0.67" stop-color="#27b183"/><stop offset="0.83" stop-color="#2ebf91"/></linearGradient></defs><title>logo</title><path class="cls-1" d="M357.09,111.8a36.82,36.82,0,0,1-10.82,26.12l-50.19,50.19a16,16,0,0,1-22.62,0L224,138.62a37,37,0,0,1-2.76-49.16,24.63,24.63,0,0,0,36,33.09,24,24,0,0,0,3-3l16.13-16.14L294,85.68a36.94,36.94,0,0,1,63.06,26.12Z" transform="translate(-212.91 -74.62)"/><path class="cls-2" d="M259.35,87l-1.8-1.75A22.9,22.9,0,0,1,259.35,87Z" transform="translate(-212.91 -74.62)"/><path class="cls-3" d="M276.45,103.53l-16.13,16.14-3,3a24.63,24.63,0,0,1-35.95-33.09,37.79,37.79,0,0,1,5.84-5.84,24.63,24.63,0,0,1,30.43,1.52l.07.07,1.8,1.75Z" transform="translate(-212.91 -74.62)"/><line class="cls-4" x1="63.66" y1="29.09" x2="63.37" y2="28.81"/></svg>