<svg xmlns="http://www.w3.org/2000/svg" xmlns:xlink="http://www.w3.org/1999/xlink" version="1.1" width="1000" height="1000" viewBox="0 0 1000 1000" xml:space="preserve">
<desc>Created with Fabric.js 3.5.0</desc>
<defs>
</defs>
<rect x="0" y="0" width="100%" height="100%" fill="#ffffff" opacity="0"/>
<g transform="matrix(1.2818 0 0 1.2818 500.0017 500.0011)" id="107262">
<g style="" vector-effect="non-scaling-stroke">
		<g transform="matrix(1 0 0 1 -71.091 -194.2033)">
<path style="stroke: none; stroke-width: 1; stroke-dasharray: none; stroke-linecap: butt; stroke-dashoffset: 0; stroke-linejoin: miter; stroke-miterlimit: 4; is-custom-font: none; font-file-url: none; fill: rgb(202,202,202); fill-rule: nonzero; opacity: 1;" transform=" translate(-528.909, -255.7967)" d="M 761.55547 257.6033 h -465.293 a 1.807 1.807 0 0 1 0 -3.61318 h 465.293 a 1.807 1.807 0 0 1 0 3.61318 Z" stroke-linecap="round"/>
</g>
		<g transform="matrix(1 0 0 1 -272.8132 -216.0574)">
<ellipse style="stroke: none; stroke-width: 1; stroke-dasharray: none; stroke-linecap: butt; stroke-dashoffset: 0; stroke-linejoin: miter; stroke-miterlimit: 4; is-custom-font: none; font-file-url: none; fill: rgb(63,61,86); fill-rule: nonzero; opacity: 1;" cx="0" cy="0" rx="10.58751" ry="10.82345"/>
</g>
		<g transform="matrix(1 0 0 1 -236.2382 -216.0574)">
<ellipse style="stroke: none; stroke-width: 1; stroke-dasharray: none; stroke-linecap: butt; stroke-dashoffset: 0; stroke-linejoin: miter; stroke-miterlimit: 4; is-custom-font: none; font-file-url: none; fill: rgb(63,61,86); fill-rule: nonzero; opacity: 1;" cx="0" cy="0" rx="10.58751" ry="10.82345"/>
</g>
		<g transform="matrix(1 0 0 1 -199.6632 -216.0574)">
<ellipse style="stroke: none; stroke-width: 1; stroke-dasharray: none; stroke-linecap: butt; stroke-dashoffset: 0; stroke-linejoin: miter; stroke-miterlimit: 4; is-custom-font: none; font-file-url: none; fill: rgb(63,61,86); fill-rule: nonzero; opacity: 1;" cx="0" cy="0" rx="10.58751" ry="10.82345"/>
</g>
		<g transform="matrix(1 0 0 1 126.5437 -222.231)">
<path style="stroke: none; stroke-width: 1; stroke-dasharray: none; stroke-linecap: butt; stroke-dashoffset: 0; stroke-linejoin: miter; stroke-miterlimit: 4; is-custom-font: none; font-file-url: none; fill: rgb(63,61,86); fill-rule: nonzero; opacity: 1;" transform=" translate(-726.5437, -227.769)" d="M 739.53421 225.80181 h -25.981 a 1.96762 1.96762 0 0 0 0 3.93446 h 25.981 a 1.96762 1.96762 0 0 0 0 -3.93446 Z" stroke-linecap="round"/>
</g>
		<g transform="matrix(1 0 0 1 126.5437 -214.8466)">
<path style="stroke: none; stroke-width: 1; stroke-dasharray: none; stroke-linecap: butt; stroke-dashoffset: 0; stroke-linejoin: miter; stroke-miterlimit: 4; is-custom-font: none; font-file-url: none; fill: rgb(63,61,86); fill-rule: nonzero; opacity: 1;" transform=" translate(-726.5437, -235.1534)" d="M 739.53421 233.18618 h -25.981 a 1.96762 1.96762 0 0 0 0 3.93446 h 25.981 a 1.96762 1.96762 0 0 0 0 -3.93446 Z" stroke-linecap="round"/>
</g>
		<g transform="matrix(1 0 0 1 126.5437 -207.472)">
<path style="stroke: none; stroke-width: 1; stroke-dasharray: none; stroke-linecap: butt; stroke-dashoffset: 0; stroke-linejoin: miter; stroke-miterlimit: 4; is-custom-font: none; font-file-url: none; fill: rgb(63,61,86); fill-rule: nonzero; opacity: 1;" transform=" translate(-726.5437, -242.5281)" d="M 739.53421 240.56085 h -25.981 a 1.96762 1.96762 0 0 0 0 3.93446 h 25.981 a 1.96762 1.96762 0 0 0 0 -3.93446 Z" stroke-linecap="round"/>
</g>
		<g transform="matrix(1 0 0 1 -71.0911 20.6343)">
<path style="stroke: none; stroke-width: 1; stroke-dasharray: none; stroke-linecap: butt; stroke-dashoffset: 0; stroke-linejoin: miter; stroke-miterlimit: 4; is-custom-font: none; font-file-url: none; fill: rgb(230,230,230); fill-rule: nonzero; opacity: 1;" transform=" translate(-528.909, -470.6342)" d="M 424.21746 585.305 l 0.63744 -229.92024 A 17.57236 17.57236 0 0 1 442.456 337.881 l 173.64083 0.48141 a 17.57234 17.57234 0 0 1 17.50366 17.60109 L 632.963 585.8837 a 17.57234 17.57234 0 0 1 -17.601 17.50376 l -173.64083 -0.48141 A 17.57235 17.57235 0 0 1 424.21746 585.305 Z" stroke-linecap="round"/>
</g>
		<g transform="matrix(1 0 0 1 -71.0122 20.6342)">
<path style="stroke: none; stroke-width: 1; stroke-dasharray: none; stroke-linecap: butt; stroke-dashoffset: 0; stroke-linejoin: miter; stroke-miterlimit: 4; is-custom-font: none; font-file-url: none; fill: rgb(255,255,255); fill-rule: nonzero; opacity: 1;" transform=" translate(-528.9878, -470.6341)" d="M 437.72932 515.89635 l 0.4098 -147.81359 A 16.45672 16.45672 0 0 1 454.62307 351.69 l 149.22967 0.41373 a 16.45743 16.45743 0 0 1 16.39363 16.484 l -0.56723 204.59774 a 16.45744 16.45744 0 0 1 -16.48479 16.3928 l -92.44468 -0.2563 A 73.306 73.306 0 0 1 437.72932 515.89635 Z" stroke-linecap="round"/>
</g>
		<g transform="matrix(1 0 0 1 -71.091 10.0975)">
<path style="stroke: none; stroke-width: 1; stroke-dasharray: none; stroke-linecap: butt; stroke-dashoffset: 0; stroke-linejoin: miter; stroke-miterlimit: 4; is-custom-font: none; font-file-url: none; fill: rgb(108,99,255); fill-rule: nonzero; opacity: 1;" transform=" translate(-528.909, -460.0975)" d="M 587.08939 467.07912 H 470.72854 a 6.98165 6.98165 0 0 1 0 -13.9633 H 587.08939 a 6.98165 6.98165 0 1 1 0 13.9633 Z" stroke-linecap="round"/>
</g>
		<g transform="matrix(1 0 0 1 -116.4718 -28.1904)">
<path style="stroke: none; stroke-width: 1; stroke-dasharray: none; stroke-linecap: butt; stroke-dashoffset: 0; stroke-linejoin: miter; stroke-miterlimit: 4; is-custom-font: none; font-file-url: none; fill: rgb(108,99,255); fill-rule: nonzero; opacity: 1;" transform=" translate(-483.5282, -421.8096)" d="M 496.32793 428.79122 H 470.72854 a 6.98165 6.98165 0 1 1 0 -13.9633 h 25.59939 a 6.98165 6.98165 0 1 1 0 13.9633 Z" stroke-linecap="round"/>
</g>
		<g transform="matrix(1 0 0 1 -71.091 71.4839)">
<path style="stroke: none; stroke-width: 1; stroke-dasharray: none; stroke-linecap: butt; stroke-dashoffset: 0; stroke-linejoin: miter; stroke-miterlimit: 4; is-custom-font: none; font-file-url: none; fill: rgb(108,99,255); fill-rule: nonzero; opacity: 1;" transform=" translate(-528.909, -521.4838)" d="M 587.08939 528.46546 H 470.72854 a 6.98165 6.98165 0 1 1 0 -13.9633 H 587.08939 a 6.98165 6.98165 0 1 1 0 13.9633 Z" stroke-linecap="round"/>
</g>
		<g transform="matrix(1 0 0 1 -71.091 40.7906)">
<path style="stroke: none; stroke-width: 1; stroke-dasharray: none; stroke-linecap: butt; stroke-dashoffset: 0; stroke-linejoin: miter; stroke-miterlimit: 4; is-custom-font: none; font-file-url: none; fill: rgb(108,99,255); fill-rule: nonzero; opacity: 1;" transform=" translate(-528.909, -490.7906)" d="M 587.08939 497.77229 H 470.72854 a 6.98165 6.98165 0 0 1 0 -13.9633 H 587.08939 a 6.98165 6.98165 0 1 1 0 13.9633 Z" stroke-linecap="round"/>
</g>
		<g transform="matrix(1 0 0 1 -326.8363 199.1009)">
<circle style="stroke: none; stroke-width: 1; stroke-dasharray: none; stroke-linecap: butt; stroke-dashoffset: 0; stroke-linejoin: miter; stroke-miterlimit: 4; is-custom-font: none; font-file-url: none; fill: rgb(108,99,255); fill-rule: nonzero; opacity: 1;" cx="0" cy="0" r="27.78"/>
</g>
		<g transform="matrix(1 0 0 1 -326.838 199.1017)">
<path style="stroke: none; stroke-width: 1; stroke-dasharray: none; stroke-linecap: butt; stroke-dashoffset: 0; stroke-linejoin: miter; stroke-miterlimit: 4; is-custom-font: none; font-file-url: none; fill: rgb(255,255,255); fill-rule: nonzero; opacity: 1;" transform=" translate(-273.162, -649.1016)" d="M 269.374 663.55909 a 3.08927 3.08927 0 0 1 -2.47187 -1.23631 l -7.57881 -10.10525 a 3.09007 3.09007 0 1 1 4.94423 -3.70792 l 4.95832 6.61059 l 12.7348 -19.10195 a 3.0902 3.0902 0 0 1 5.1424 3.42827 L 271.9454 662.183 a 3.09146 3.09146 0 0 1 -2.48545 1.37514 C 269.43129 663.55859 269.40262 663.55909 269.374 663.55909 Z" stroke-linecap="round"/>
</g>
		<g transform="matrix(1 0 0 1 -327.5886 141.2295)">
<rect style="stroke: none; stroke-width: 1; stroke-dasharray: none; stroke-linecap: butt; stroke-dashoffset: 0; stroke-linejoin: miter; stroke-miterlimit: 4; is-custom-font: none; font-file-url: none; fill: rgb(47,46,65); fill-rule: nonzero; opacity: 1;" x="-1" y="-3" rx="0" ry="0" width="2" height="6"/>
</g>
		<g transform="matrix(1 0 0 1 -327.5886 75.2197)">
<path style="stroke: none; stroke-width: 1; stroke-dasharray: none; stroke-linecap: butt; stroke-dashoffset: 0; stroke-linejoin: miter; stroke-miterlimit: 4; is-custom-font: none; font-file-url: none; fill: rgb(47,46,65); fill-rule: nonzero; opacity: 1;" transform=" translate(-272.4114, -525.2198)" d="M 273.41141 576.77347 h -2 V 565.31741 h 2 Z m 0 -22.91309 h -2 V 542.40433 h 2 Z m 0 -22.91211 h -2 v -11.457 h 2 Z m 0 -22.91308 h -2 V 496.57913 h 2 Z m 0 -22.91309 h -2 V 473.66605 h 2 Z" stroke-linecap="round"/>
</g>
		<g transform="matrix(1 0 0 1 -325.0883 8.7101)">
<polygon style="stroke: none; stroke-width: 1; stroke-dasharray: none; stroke-linecap: butt; stroke-dashoffset: 0; stroke-linejoin: miter; stroke-miterlimit: 4; is-custom-font: none; font-file-url: none; fill: rgb(47,46,65); fill-rule: nonzero; opacity: 1;" points="-1.5,3.5 -3.5,3.5 -3.5,-3.5 3.5,-3.5 3.5,-1.5 -1.5,-1.5 -1.5,3.5 "/>
</g>
		<g transform="matrix(1 0 0 1 -268.4873 6.21)">
<path style="stroke: none; stroke-width: 1; stroke-dasharray: none; stroke-linecap: butt; stroke-dashoffset: 0; stroke-linejoin: miter; stroke-miterlimit: 4; is-custom-font: none; font-file-url: none; fill: rgb(47,46,65); fill-rule: nonzero; opacity: 1;" transform=" translate(-331.5127, -456.21)" d="M 372.81375 457.21 H 361.01346 v -2 h 11.80029 Z m -23.60058 0 h -11.8003 v -2 h 11.8003 Z m -23.60059 0 H 313.81229 v -2 h 11.80029 Z m -23.60058 0 H 290.2117 v -2 H 302.012 Z" stroke-linecap="round"/>
</g>
		<g transform="matrix(1 0 0 1 -212.3855 6.21)">
<rect style="stroke: none; stroke-width: 1; stroke-dasharray: none; stroke-linecap: butt; stroke-dashoffset: 0; stroke-linejoin: miter; stroke-miterlimit: 4; is-custom-font: none; font-file-url: none; fill: rgb(47,46,65); fill-rule: nonzero; opacity: 1;" x="-3" y="-1" rx="0" ry="0" width="6" height="2"/>
</g>
		<g transform="matrix(1 0 0 1 315.7239 80.8809)">
<rect style="stroke: none; stroke-width: 1; stroke-dasharray: none; stroke-linecap: butt; stroke-dashoffset: 0; stroke-linejoin: miter; stroke-miterlimit: 4; is-custom-font: none; font-file-url: none; fill: rgb(47,46,65); fill-rule: nonzero; opacity: 1;" x="-1" y="-3" rx="0" ry="0" width="2" height="6"/>
</g>
		<g transform="matrix(1 0 0 1 315.7239 45.046)">
<path style="stroke: none; stroke-width: 1; stroke-dasharray: none; stroke-linecap: butt; stroke-dashoffset: 0; stroke-linejoin: miter; stroke-miterlimit: 4; is-custom-font: none; font-file-url: none; fill: rgb(47,46,65); fill-rule: nonzero; opacity: 1;" transform=" translate(-915.7239, -495.0459)" d="M 916.72391 514.7471 h -2 V 501.61331 h 2 Z m 0 -26.26855 h -2 V 475.34476 h 2 Z" stroke-linecap="round"/>
</g>
		<g transform="matrix(1 0 0 1 313.2237 8.7101)">
<polygon style="stroke: none; stroke-width: 1; stroke-dasharray: none; stroke-linecap: butt; stroke-dashoffset: 0; stroke-linejoin: miter; stroke-miterlimit: 4; is-custom-font: none; font-file-url: none; fill: rgb(47,46,65); fill-rule: nonzero; opacity: 1;" points="3.5,3.5 1.5,3.5 1.5,-1.5 -3.5,-1.5 -3.5,-3.5 3.5,-3.5 3.5,3.5 "/>
</g>
		<g transform="matrix(1 0 0 1 191.6221 6.21)">
<path style="stroke: none; stroke-width: 1; stroke-dasharray: none; stroke-linecap: butt; stroke-dashoffset: 0; stroke-linejoin: miter; stroke-miterlimit: 4; is-custom-font: none; font-file-url: none; fill: rgb(47,46,65); fill-rule: nonzero; opacity: 1;" transform=" translate(-791.6221, -456.21)" d="M 897.29178 457.21 H 884.86014 v -2 h 12.43164 Z m -24.86328 0 H 859.99637 v -2 H 872.4285 Z m -24.86377 0 H 835.13309 v -2 h 12.43164 Z m -24.86328 0 H 810.26981 v -2 h 12.43164 Z m -24.86328 0 H 785.406 v -2 h 12.43213 Z m -24.86377 0 H 760.54276 v -2 H 772.9744 Z m -24.86328 0 H 735.67948 v -2 h 12.43164 Z m -24.86328 0 H 710.81571 v -2 h 12.43213 Z m -24.86377 0 H 685.95242 v -2 h 12.43165 Z" stroke-linecap="round"/>
</g>
		<g transform="matrix(1 0 0 1 70.5208 6.21)">
<rect style="stroke: none; stroke-width: 1; stroke-dasharray: none; stroke-linecap: butt; stroke-dashoffset: 0; stroke-linejoin: miter; stroke-miterlimit: 4; is-custom-font: none; font-file-url: none; fill: rgb(47,46,65); fill-rule: nonzero; opacity: 1;" x="-3" y="-1" rx="0" ry="0" width="6" height="2"/>
</g>
		<g transform="matrix(1 0 0 1 316.3523 129.1009)">
<circle style="stroke: none; stroke-width: 1; stroke-dasharray: none; stroke-linecap: butt; stroke-dashoffset: 0; stroke-linejoin: miter; stroke-miterlimit: 4; is-custom-font: none; font-file-url: none; fill: rgb(108,99,255); fill-rule: nonzero; opacity: 1;" cx="0" cy="0" r="27.78"/>
</g>
		<g transform="matrix(1 0 0 1 316.3524 129.1084)">
<path style="stroke: none; stroke-width: 1; stroke-dasharray: none; stroke-linecap: butt; stroke-dashoffset: 0; stroke-linejoin: miter; stroke-miterlimit: 4; is-custom-font: none; font-file-url: none; fill: rgb(255,255,255); fill-rule: nonzero; opacity: 1;" transform=" translate(-916.3523, -579.1084)" d="M 921.81734 579.10094 l 5.465 -5.465 a 3.86439 3.86439 0 0 0 -5.465 -5.46512 l -5.465 5.465 l -5.465 -5.465 a 3.86439 3.86439 0 0 0 -5.465 5.46512 l 5.465 5.465 l -5.465 5.465 a 3.86436 3.86436 0 1 0 5.465 5.465 l 5.465 -5.465 l 5.465 5.465 a 3.86436 3.86436 0 1 0 5.465 -5.465 Z" stroke-linecap="round"/>
</g>
		<g transform="matrix(1 0 0 1 269.9087 -19.3119)">
<polygon style="stroke: none; stroke-width: 1; stroke-dasharray: none; stroke-linecap: butt; stroke-dashoffset: 0; stroke-linejoin: miter; stroke-miterlimit: 4; is-custom-font: none; font-file-url: none; fill: rgb(47,46,65); fill-rule: nonzero; opacity: 1;" points="-31.5,-17.807 -25.5,17.807 31.5,-12.807 -31.5,-17.807 "/>
</g>
		<g transform="matrix(1 0 0 1 224.6662 160.9356)">
<polygon style="stroke: none; stroke-width: 1; stroke-dasharray: none; stroke-linecap: butt; stroke-dashoffset: 0; stroke-linejoin: miter; stroke-miterlimit: 4; is-custom-font: none; font-file-url: none; fill: rgb(255,182,182); fill-rule: nonzero; opacity: 1;" points="6.9325,23.3875 -5.0085,22.9005 -8.8115,-23.3875 8.8115,-22.6685 6.9325,23.3875 "/>
</g>
		<g transform="matrix(1 0 0 1 234.7934 49.2749)">
<path style="stroke: none; stroke-width: 1; stroke-dasharray: none; stroke-linecap: butt; stroke-dashoffset: 0; stroke-linejoin: miter; stroke-miterlimit: 4; is-custom-font: none; font-file-url: none; fill: rgb(47,46,65); fill-rule: nonzero; opacity: 1;" transform=" translate(-834.7934, -499.2749)" d="M 832.409 501.88089 c 21.65988 -6.6036 26.10513 -34.83683 38 -41 c -0.03039 -14.91117 0.56944 -61.152 -14.31576 -60.27152 c -8.2895 0.49033 -54.47586 85.03053 -56.45564 99.03659 c -3.67322 25.98611 15.93847 92.30925 13.66277 96.86558 l 22.77418 1.44122 l 0.13307 -1.79244 c 0.361 -4.86239 3.99152 -19.5229 -0.14985 -22.09625 l -1.56926 -0.97511 v 0 c 0.01381 -5.05554 1.11721 -13.66779 -3.44268 -15.85094 l 0 0 a 0.45861 0.45861 0 0 1 -0.19274 -0.65367 Z" stroke-linecap="round"/>
</g>
		<g transform="matrix(1 0 0 1 218.1065 182.294)">
<path style="stroke: none; stroke-width: 1; stroke-dasharray: none; stroke-linecap: butt; stroke-dashoffset: 0; stroke-linejoin: miter; stroke-miterlimit: 4; is-custom-font: none; font-file-url: none; fill: rgb(47,46,65); fill-rule: nonzero; opacity: 1;" transform=" translate(-818.1065, -632.294)" d="M 837.75119 644.68 l -7.98509 0.47079 l -1.86978 -7.45484 l -3.20593 7.75409 L 803.512 646.6987 a 4.769 4.769 0 0 1 -3.21685 -8.51882 l 16.22376 -12.67745 l -0.44935 -7.62154 l 17.8515 0.013 Z" stroke-linecap="round"/>
</g>
		<g transform="matrix(1 0 0 1 333.2637 78.4096)">
<polygon style="stroke: none; stroke-width: 1; stroke-dasharray: none; stroke-linecap: butt; stroke-dashoffset: 0; stroke-linejoin: miter; stroke-miterlimit: 4; is-custom-font: none; font-file-url: none; fill: rgb(255,182,182); fill-rule: nonzero; opacity: 1;" points="-10.651,22.4895 1.261,23.4545 10.651,-22.0295 -6.929,-23.4545 -10.651,22.4895 "/>
</g>
		<g transform="matrix(1 0 0 1 301.9579 1.8047)">
<path style="stroke: none; stroke-width: 1; stroke-dasharray: none; stroke-linecap: butt; stroke-dashoffset: 0; stroke-linejoin: miter; stroke-miterlimit: 4; is-custom-font: none; font-file-url: none; fill: rgb(47,46,65); fill-rule: nonzero; opacity: 1;" transform=" translate(-901.9579, -451.8047)" d="M 917.94337 435.62751 c -10.68309 18.77387 -29.7946 23.25606 -49.61223 26.54068 c -8.61658 -12.16958 -21.7506 -29.13594 -9.10955 -37.04469 c 7.03974 -4.40434 68.06486 -40.03448 77.48552 -29.48267 c 24.59557 27.5487 7.04909 116.19975 8.56058 114.24006 l -19.48222 -0.28322 l -1.14721 -1.38366 a 13.09952 13.09952 0 0 1 -1.99818 -13.42189 l 0.71379 -1.70408 l 0 0 a 13.09953 13.09953 0 0 1 -0.80241 -13.97121 l 0.24682 -0.44529 Z" stroke-linecap="round"/>
</g>
		<g transform="matrix(1 0 0 1 334.9329 100.4889)">
<path style="stroke: none; stroke-width: 1; stroke-dasharray: none; stroke-linecap: butt; stroke-dashoffset: 0; stroke-linejoin: miter; stroke-miterlimit: 4; is-custom-font: none; font-file-url: none; fill: rgb(47,46,65); fill-rule: nonzero; opacity: 1;" transform=" translate(-934.9329, -550.489)" d="M 922.30074 534.30952 l 17.72124 2.15273 l -1.37061 7.51074 l 14.566 14.55193 a 4.769 4.769 0 0 1 -4.22651 8.06567 L 928.1204 562.782 l -2.2416 -8.08574 l -2.76032 7.173 l -7.869 -1.436 Z" stroke-linecap="round"/>
</g>
		<g transform="matrix(1 0 0 1 272.2638 -89.7269)">
<path style="stroke: none; stroke-width: 1; stroke-dasharray: none; stroke-linecap: butt; stroke-dashoffset: 0; stroke-linejoin: miter; stroke-miterlimit: 4; is-custom-font: none; font-file-url: none; fill: rgb(108,99,255); fill-rule: nonzero; opacity: 1;" transform=" translate(-872.2639, -360.2731)" d="M 875.997 285.88089 h -8.1757 a 10.3291 10.3291 0 0 0 -8.49234 4.44943 l -5.92 8.55057 l -14.74955 2.68259 a 25.88127 25.88127 0 0 0 -10.58115 31.24819 c 10.43685 27.29807 15.47506 78.4631 5.3307 101.06922 c 0 0 61.5424 5.57485 77 -13 s 3 -109 3 -109 l -23 -13 l -5.91946 -8.55032 A 10.32909 10.32909 0 0 0 875.997 285.88089 Z" stroke-linecap="round"/>
</g>
		<g transform="matrix(1 0 0 1 314.2955 -35.1397)">
<path style="stroke: none; stroke-width: 1; stroke-dasharray: none; stroke-linecap: butt; stroke-dashoffset: 0; stroke-linejoin: miter; stroke-miterlimit: 4; is-custom-font: none; font-file-url: none; fill: rgb(255,182,182); fill-rule: nonzero; opacity: 1;" transform=" translate(-914.2956, -414.8603)" d="M 914.13807 445.65388 a 6.87461 6.87461 0 0 0 -1.202 -10.47258 L 926.409 390.88089 l -15 -9 l -8.32411 55.63259 a 6.91183 6.91183 0 0 0 11.05321 8.1404 Z" stroke-linecap="round"/>
</g>
		<g transform="matrix(1 0 0 1 311.5966 -97.7878)">
<path style="stroke: none; stroke-width: 1; stroke-dasharray: none; stroke-linecap: butt; stroke-dashoffset: 0; stroke-linejoin: miter; stroke-miterlimit: 4; is-custom-font: none; font-file-url: none; fill: rgb(108,99,255); fill-rule: nonzero; opacity: 1;" transform=" translate(-911.5966, -352.2122)" d="M 927.409 395.88089 l -18 -7 l 0.76849 -8.98724 L 888.7904 333.07744 a 17.33239 17.33239 0 0 1 11.56253 -24.01672 h 0 a 17.35086 17.35086 0 0 1 21.01712 12.61282 l 14.05607 56.24312 C 937.0524 386.64621 935.21359 393.16592 927.409 395.88089 Z" stroke-linecap="round"/>
</g>
		<g transform="matrix(1 0 0 1 273.1027 -195.0191)">
<path style="stroke: none; stroke-width: 1; stroke-dasharray: none; stroke-linecap: butt; stroke-dashoffset: 0; stroke-linejoin: miter; stroke-miterlimit: 4; is-custom-font: none; font-file-url: none; fill: rgb(47,46,65); fill-rule: nonzero; opacity: 1;" transform=" translate(-873.1027, -254.9809)" d="M 902.50894 258.63089 a 30.55 30.55 0 1 0 -61.1 0 v 19.15 a 4.10559 4.10559 0 0 0 4.1 4.1 h 0.75 a 29.29623 29.29623 0 0 0 1.57 -7.69 a 27.451 27.451 0 0 1 3.56 7.69 h 47.01 a 4.11416 4.11416 0 0 0 4.11 -4.1 C 904.97891 272.74088 906.089 266.96091 902.50894 258.63089 Z" stroke-linecap="round"/>
</g>
		<g transform="matrix(1 0 0 1 270.728 -190.7052)">
<circle style="stroke: none; stroke-width: 1; stroke-dasharray: none; stroke-linecap: butt; stroke-dashoffset: 0; stroke-linejoin: miter; stroke-miterlimit: 4; is-custom-font: none; font-file-url: none; fill: rgb(255,184,184); fill-rule: nonzero; opacity: 1;" cx="0" cy="0" r="22.39729"/>
</g>
		<g transform="matrix(1 0 0 1 271.5927 -200.7262)">
<path style="stroke: none; stroke-width: 1; stroke-dasharray: none; stroke-linecap: butt; stroke-dashoffset: 0; stroke-linejoin: miter; stroke-miterlimit: 4; is-custom-font: none; font-file-url: none; fill: rgb(47,46,65); fill-rule: nonzero; opacity: 1;" transform=" translate(-871.5927, -249.2738)" d="M 847.716 259.20858 a 2.28 2.28 0 0 1 -0.53365 -1.81757 l 2.65312 -18.475 a 2.283 2.283 0 0 1 1.28993 -1.74989 c 13.54208 -6.33791 27.27473 -6.34593 40.81681 -0.024 a 2.29725 2.29725 0 0 1 1.30284 1.85676 l 2.771 14.499 a 2.28538 2.28538 0 0 1 -0.58219 1.75079 c -0.431 0.47376 -1.03378 10.89224 -1.675 10.89224 c 0.54071 -6.20981 -0.76733 -9.18094 -5.504 -6.146 a 2.28855 2.28855 0 0 1 -2.06583 -1.31531 l -1.93847 -4.15344 a 1.36775 1.36775 0 0 0 -2.59678 0.40876 l -0.38293 3.06253 a 2.28306 2.28306 0 0 1 -2.26215 1.99746 c -7.91461 3.92717 -18.29388 2.87025 -29.56988 0 A 2.27983 2.27983 0 0 1 847.716 259.20858 Z" stroke-linecap="round"/>
</g>
		<g transform="matrix(1 0 0 1 270.2332 -90.6489)">
<path style="stroke: none; stroke-width: 1; stroke-dasharray: none; stroke-linecap: butt; stroke-dashoffset: 0; stroke-linejoin: miter; stroke-miterlimit: 4; is-custom-font: none; font-file-url: none; fill: rgb(63,61,86); fill-rule: nonzero; opacity: 1;" transform=" translate(-870.2332, -359.3511)" d="M 888.5875 383.82124 H 851.879 a 4.74663 4.74663 0 0 1 -4.7412 -4.74121 V 339.62209 a 4.74645 4.74645 0 0 1 4.7412 -4.7412 H 888.5875 a 4.74645 4.74645 0 0 1 4.7412 4.7412 V 379.08 A 4.74663 4.74663 0 0 1 888.5875 383.82124 Z" stroke-linecap="round"/>
</g>
		<g transform="matrix(1 0 0 1 252.9117 -109.3452)">
<circle style="stroke: none; stroke-width: 1; stroke-dasharray: none; stroke-linecap: butt; stroke-dashoffset: 0; stroke-linejoin: miter; stroke-miterlimit: 4; is-custom-font: none; font-file-url: none; fill: rgb(230,230,230); fill-rule: nonzero; opacity: 1;" cx="0" cy="0" r="2.74946"/>
</g>
		<g transform="matrix(1 0 0 1 252.9117 -109.3452)">
<circle style="stroke: none; stroke-width: 1; stroke-dasharray: none; stroke-linecap: butt; stroke-dashoffset: 0; stroke-linejoin: miter; stroke-miterlimit: 4; is-custom-font: none; font-file-url: none; fill: rgb(63,61,86); fill-rule: nonzero; opacity: 1;" cx="0" cy="0" r="1.64967"/>
</g>
		<g transform="matrix(1 0 0 1 270.8494 -95.4641)">
<path style="stroke: none; stroke-width: 1; stroke-dasharray: none; stroke-linecap: butt; stroke-dashoffset: 0; stroke-linejoin: miter; stroke-miterlimit: 4; is-custom-font: none; font-file-url: none; fill: rgb(255,184,184); fill-rule: nonzero; opacity: 1;" transform=" translate(-870.8494, -354.536)" d="M 895.0998 357.22742 a 8.34008 8.34008 0 0 1 -12.78038 -0.45842 L 849.409 365.88089 l -5 -11 l 39.79477 -10.24809 a 8.38533 8.38533 0 0 1 10.89606 12.59462 Z" stroke-linecap="round"/>
</g>
		<g transform="matrix(1 0 0 1 232.8318 -110.6363)">
<path style="stroke: none; stroke-width: 1; stroke-dasharray: none; stroke-linecap: butt; stroke-dashoffset: 0; stroke-linejoin: miter; stroke-miterlimit: 4; is-custom-font: none; font-file-url: none; fill: rgb(108,99,255); fill-rule: nonzero; opacity: 1;" transform=" translate(-832.8318, -339.3637)" d="M 853.3181 366.164 l -9.23454 2.94767 c -10.04267 10.61081 -13.59628 2.91133 -25.43174 2.11455 c -2.22689 -0.14975 -3.9699 -1.97783 -5.17991 -5.43236 a 21.25624 21.25624 0 0 1 0.46348 -14.894 L 830.376 309.696 l 6.881 -5.638 l 9.60829 11.5139 l -7.37651 31.65426 l 12.11014 6.17244 Z" stroke-linecap="round"/>
</g>
</g>
</g>
</svg>