<svg xmlns="http://www.w3.org/2000/svg" xmlns:xlink="http://www.w3.org/1999/xlink" version="1.1" width="1000" height="1000" viewBox="0 0 1000 1000" xml:space="preserve">
<desc>Created with Fabric.js 3.5.0</desc>
<defs>
</defs>
<rect x="0" y="0" width="100%" height="100%" fill="#ffffff" opacity="0"/>
<g transform="matrix(1.3001 0 0 1.3001 500.0001 500.0001)" id="908456">
<g style="" vector-effect="non-scaling-stroke">
		<g transform="matrix(1 0 0 1 -97.1236 17.4431)">
<path style="stroke: none; stroke-width: 1; stroke-dasharray: none; stroke-linecap: butt; stroke-dashoffset: 0; stroke-linejoin: miter; stroke-miterlimit: 4; is-custom-font: none; font-file-url: none; fill: rgb(230,230,230); fill-rule: nonzero; opacity: 1;" transform=" translate(-543.5, -558.0659)" d="M 736 678.63184 H 351 a 8.50982 8.50982 0 0 1 -8.5 -8.5 V 446 a 8.50951 8.50951 0 0 1 8.5 -8.5 H 736 a 8.50982 8.50982 0 0 1 8.5 8.5 V 670.13184 A 8.51014 8.51014 0 0 1 736 678.63184 Z" stroke-linecap="round"/>
</g>
		<g transform="matrix(1 0 0 1 -97.1236 21.3772)">
<path style="stroke: none; stroke-width: 1; stroke-dasharray: none; stroke-linecap: butt; stroke-dashoffset: 0; stroke-linejoin: miter; stroke-miterlimit: 4; is-custom-font: none; font-file-url: none; fill: rgb(204,204,204); fill-rule: nonzero; opacity: 1;" transform=" translate(-543.5, -562)" d="M 760 710 H 327 V 423.5 a 9.51081 9.51081 0 0 1 9.5 -9.5 h 414 a 9.51081 9.51081 0 0 1 9.5 9.5 Z m -431 -2 H 758 V 423.5 a 7.5082 7.5082 0 0 0 -7.5 -7.5 h -414 a 7.5082 7.5082 0 0 0 -7.5 7.5 Z" stroke-linecap="round"/>
</g>
		<g transform="matrix(1 0 0 1 -97.1236 -114.1228)">
<circle style="stroke: none; stroke-width: 1; stroke-dasharray: none; stroke-linecap: butt; stroke-dashoffset: 0; stroke-linejoin: miter; stroke-miterlimit: 4; is-custom-font: none; font-file-url: none; fill: rgb(230,230,230); fill-rule: nonzero; opacity: 1;" cx="0" cy="0" r="4"/>
</g>
		<g transform="matrix(1 0 0 1 -97.1236 17.4436)">
<path style="stroke: none; stroke-width: 1; stroke-dasharray: none; stroke-linecap: butt; stroke-dashoffset: 0; stroke-linejoin: miter; stroke-miterlimit: 4; is-custom-font: none; font-file-url: none; fill: rgb(255,255,255); fill-rule: nonzero; opacity: 1;" transform=" translate(-543.5, -558.0664)" d="M 640 631.06641 H 447 a 8.50982 8.50982 0 0 1 -8.5 -8.5 v -129 a 8.50981 8.50981 0 0 1 8.5 -8.5 H 640 a 8.51013 8.51013 0 0 1 8.5 8.5 v 129 A 8.51014 8.51014 0 0 1 640 631.06641 Z" stroke-linecap="round"/>
</g>
		<g transform="matrix(1 0 0 1 -161.8736 -8.5569)">
<path style="stroke: none; stroke-width: 1; stroke-dasharray: none; stroke-linecap: butt; stroke-dashoffset: 0; stroke-linejoin: miter; stroke-miterlimit: 4; is-custom-font: none; font-file-url: none; fill: rgb(204,204,204); fill-rule: nonzero; opacity: 1;" transform=" translate(-478.75, -532.0659)" d="M 478.75 540.06592 a 8 8 0 1 1 8 -8 A 8.00917 8.00917 0 0 1 478.75 540.06592 Z" stroke-linecap="round"/>
</g>
		<g transform="matrix(1 0 0 1 -161.8736 17.4431)">
<path style="stroke: none; stroke-width: 1; stroke-dasharray: none; stroke-linecap: butt; stroke-dashoffset: 0; stroke-linejoin: miter; stroke-miterlimit: 4; is-custom-font: none; font-file-url: none; fill: rgb(108,99,255); fill-rule: nonzero; opacity: 1;" transform=" translate(-478.75, -558.0659)" d="M 478.75 566.06592 a 8 8 0 1 1 8 -8 A 8.00917 8.00917 0 0 1 478.75 566.06592 Z" stroke-linecap="round"/>
</g>
		<g transform="matrix(1 0 0 1 -161.8736 43.4431)">
<path style="stroke: none; stroke-width: 1; stroke-dasharray: none; stroke-linecap: butt; stroke-dashoffset: 0; stroke-linejoin: miter; stroke-miterlimit: 4; is-custom-font: none; font-file-url: none; fill: rgb(108,99,255); fill-rule: nonzero; opacity: 1;" transform=" translate(-478.75, -584.0659)" d="M 478.75 592.06592 a 8 8 0 1 1 8 -8 A 8.00917 8.00917 0 0 1 478.75 592.06592 Z" stroke-linecap="round"/>
</g>
		<g transform="matrix(1 0 0 1 -77.3736 -8.5569)">
<path style="stroke: none; stroke-width: 1; stroke-dasharray: none; stroke-linecap: butt; stroke-dashoffset: 0; stroke-linejoin: miter; stroke-miterlimit: 4; is-custom-font: none; font-file-url: none; fill: rgb(204,204,204); fill-rule: nonzero; opacity: 1;" transform=" translate(-563.25, -532.0659)" d="M 516.75 525.56592 a 6.5 6.5 0 0 0 0 13 h 93 a 6.5 6.5 0 0 0 0 -13 Z" stroke-linecap="round"/>
</g>
		<g transform="matrix(1 0 0 1 -77.3736 17.4431)">
<path style="stroke: none; stroke-width: 1; stroke-dasharray: none; stroke-linecap: butt; stroke-dashoffset: 0; stroke-linejoin: miter; stroke-miterlimit: 4; is-custom-font: none; font-file-url: none; fill: rgb(108,99,255); fill-rule: nonzero; opacity: 1;" transform=" translate(-563.25, -558.0659)" d="M 516.75 551.56592 a 6.5 6.5 0 0 0 0 13 h 93 a 6.5 6.5 0 0 0 0 -13 Z" stroke-linecap="round"/>
</g>
		<g transform="matrix(1 0 0 1 -77.3736 43.4431)">
<path style="stroke: none; stroke-width: 1; stroke-dasharray: none; stroke-linecap: butt; stroke-dashoffset: 0; stroke-linejoin: miter; stroke-miterlimit: 4; is-custom-font: none; font-file-url: none; fill: rgb(108,99,255); fill-rule: nonzero; opacity: 1;" transform=" translate(-563.25, -584.0659)" d="M 516.75 577.56592 a 6.5 6.5 0 0 0 0 13 h 93 a 6.5 6.5 0 0 0 0 -13 Z" stroke-linecap="round"/>
</g>
		<g transform="matrix(1 0 0 1 305.4134 158.1583)">
<polygon style="stroke: none; stroke-width: 1; stroke-dasharray: none; stroke-linecap: butt; stroke-dashoffset: 0; stroke-linejoin: miter; stroke-miterlimit: 4; is-custom-font: none; font-file-url: none; fill: rgb(255,184,184); fill-rule: nonzero; opacity: 1;" points="8.251,23.7925 -4.007,23.5865 -9.046,-23.7925 9.046,-23.4885 8.251,23.7925 "/>
</g>
		<g transform="matrix(0.9999 0.0168 -0.0168 0.9999 296.9625 185.6111)">
<path style="stroke: none; stroke-width: 1; stroke-dasharray: none; stroke-linecap: butt; stroke-dashoffset: 0; stroke-linejoin: miter; stroke-miterlimit: 4; is-custom-font: none; font-file-url: none; fill: rgb(47,46,65); fill-rule: nonzero; opacity: 1;" transform=" translate(-937.5862, -726.2339)" d="M 933.20767 718.79047 h 23.64388 a 0 0 0 0 1 0 0 v 14.88687 a 0 0 0 0 1 0 0 H 918.32081 a 0 0 0 0 1 0 0 v 0 A 14.88685 14.88685 0 0 1 933.20767 718.79047 Z" stroke-linecap="round"/>
</g>
		<g transform="matrix(1 0 0 1 195.2069 156.5278)">
<polygon style="stroke: none; stroke-width: 1; stroke-dasharray: none; stroke-linecap: butt; stroke-dashoffset: 0; stroke-linejoin: miter; stroke-miterlimit: 4; is-custom-font: none; font-file-url: none; fill: rgb(255,184,184); fill-rule: nonzero; opacity: 1;" points="-3.1895,25.311 -14.5535,20.711 -2.2185,-25.311 14.5535,-18.521 -3.1895,25.311 "/>
</g>
		<g transform="matrix(0.9269 0.3752 -0.3752 0.9269 175.1159 179.2488)">
<path style="stroke: none; stroke-width: 1; stroke-dasharray: none; stroke-linecap: butt; stroke-dashoffset: 0; stroke-linejoin: miter; stroke-miterlimit: 4; is-custom-font: none; font-file-url: none; fill: rgb(47,46,65); fill-rule: nonzero; opacity: 1;" transform=" translate(-815.7395, -719.8717)" d="M 811.361 712.42822 H 835.0049 a 0 0 0 0 1 0 0 V 727.3151 a 0 0 0 0 1 0 0 H 796.47418 a 0 0 0 0 1 0 0 v 0 A 14.88687 14.88687 0 0 1 811.361 712.42822 Z" stroke-linecap="round"/>
</g>
		<g transform="matrix(1 0 0 1 249.2153 82.9197)">
<path style="stroke: none; stroke-width: 1; stroke-dasharray: none; stroke-linecap: butt; stroke-dashoffset: 0; stroke-linejoin: miter; stroke-miterlimit: 4; is-custom-font: none; font-file-url: none; fill: rgb(47,46,65); fill-rule: nonzero; opacity: 1;" transform=" translate(-889.8389, -623.5426)" d="M 873.61445 545.1712 l -36 95 l -15 66 l 16 8 l 73 -142 l 27 142.5 h 16 s 7.316 -169.01457 -3.342 -182.25729 Z" stroke-linecap="round"/>
</g>
		<g transform="matrix(1 0 0 1 188.3606 80.389)">
<circle style="stroke: none; stroke-width: 1; stroke-dasharray: none; stroke-linecap: butt; stroke-dashoffset: 0; stroke-linejoin: miter; stroke-miterlimit: 4; is-custom-font: none; font-file-url: none; fill: rgb(108,99,255); fill-rule: nonzero; opacity: 1;" cx="0" cy="0" r="28.17188"/>
</g>
		<g transform="matrix(1 0 0 1 191.3304 80.2483)">
<polygon style="stroke: none; stroke-width: 1; stroke-dasharray: none; stroke-linecap: butt; stroke-dashoffset: 0; stroke-linejoin: miter; stroke-miterlimit: 4; is-custom-font: none; font-file-url: none; fill: rgb(255,255,255); fill-rule: nonzero; opacity: 1;" points="-5.318,12.5975 -14.259,1.1005 -9.059,-2.9435 -4.826,2.4995 9.476,-12.5975 14.259,-8.0665 -5.318,12.5975 "/>
</g>
		<g transform="matrix(1 0 0 1 250.4908 -159.9516)">
<circle style="stroke: none; stroke-width: 1; stroke-dasharray: none; stroke-linecap: butt; stroke-dashoffset: 0; stroke-linejoin: miter; stroke-miterlimit: 4; is-custom-font: none; font-file-url: none; fill: rgb(47,46,65); fill-rule: nonzero; opacity: 1;" cx="0" cy="0" r="33"/>
</g>
		<g transform="matrix(1 0 0 1 211.0363 -12.2444)">
<path style="stroke: none; stroke-width: 1; stroke-dasharray: none; stroke-linecap: butt; stroke-dashoffset: 0; stroke-linejoin: miter; stroke-miterlimit: 4; is-custom-font: none; font-file-url: none; fill: rgb(255,184,184); fill-rule: nonzero; opacity: 1;" transform=" translate(-851.6599, -528.3784)" d="M 845.06051 605.22967 a 10.74264 10.74264 0 0 0 3.84155 -16.01842 l 25.033 -138.54 l -23.36007 -0.30785 L 833.191 587.36152 a 10.8009 10.8009 0 0 0 11.86954 17.86815 Z" stroke-linecap="round"/>
</g>
		<g transform="matrix(1 0 0 1 309.4655 -28.3704)">
<path style="stroke: none; stroke-width: 1; stroke-dasharray: none; stroke-linecap: butt; stroke-dashoffset: 0; stroke-linejoin: miter; stroke-miterlimit: 4; is-custom-font: none; font-file-url: none; fill: rgb(255,184,184); fill-rule: nonzero; opacity: 1;" transform=" translate(-950.0891, -512.2525)" d="M 988.50931 578.17023 a 10.74528 10.74528 0 0 0 -5.16594 -15.93969 l -44.701 -108.58 a 19.7819 19.7819 0 0 0 -28.73525 -9.27015 h 0 l 59.20611 124.76112 a 10.80077 10.80077 0 0 0 19.39612 9.02868 Z" stroke-linecap="round"/>
</g>
		<g transform="matrix(1 0 0 1 251.1443 -147.5186)">
<circle style="stroke: none; stroke-width: 1; stroke-dasharray: none; stroke-linecap: butt; stroke-dashoffset: 0; stroke-linejoin: miter; stroke-miterlimit: 4; is-custom-font: none; font-file-url: none; fill: rgb(255,184,184); fill-rule: nonzero; opacity: 1;" cx="0" cy="0" r="24.56103"/>
</g>
		<g transform="matrix(1 0 0 1 255.9908 -51.8657)">
<path style="stroke: none; stroke-width: 1; stroke-dasharray: none; stroke-linecap: butt; stroke-dashoffset: 0; stroke-linejoin: miter; stroke-miterlimit: 4; is-custom-font: none; font-file-url: none; fill: rgb(204,204,204); fill-rule: nonzero; opacity: 1;" transform=" translate(-896.6145, -488.7571)" d="M 861.90227 431.93849 c 14.16614 -5.89755 38.62325 -11.72619 65.78076 0.97762 a 24.87158 24.87158 0 0 1 13.31114 15.38724 l 11.62028 38.86785 l -15 15 l 14 31 s -53.5 32.5 -77.5 12.5 l -14.5 -51.5 l -19 -5 l 6.482 -38.51076 A 24.68767 24.68767 0 0 1 861.90227 431.93849 Z" stroke-linecap="round"/>
</g>
		<g transform="matrix(1 0 0 1 250.0376 -167.4681)">
<path style="stroke: none; stroke-width: 1; stroke-dasharray: none; stroke-linecap: butt; stroke-dashoffset: 0; stroke-linejoin: miter; stroke-miterlimit: 4; is-custom-font: none; font-file-url: none; fill: rgb(47,46,65); fill-rule: nonzero; opacity: 1;" transform=" translate(-890.6613, -373.1548)" d="M 868.79617 374.94113 a 73.04115 73.04115 0 0 0 31.59919 10.4119 l -3.33084 -3.991 a 24.47775 24.47775 0 0 0 7.5611 1.50143 a 8.2807 8.2807 0 0 0 6.74954 -3.15918 a 7.70232 7.70232 0 0 0 0.51556 -7.115 a 14.58851 14.58851 0 0 0 -4.58936 -5.7385 a 27.32287 27.32287 0 0 0 -25.43066 -4.54493 a 16.32976 16.32976 0 0 0 -7.59543 4.87221 a 9.23579 9.23579 0 0 0 -1.86255 8.56086" stroke-linecap="round"/>
</g>
		<g transform="matrix(1 0 0 1 215.8584 -181.293)">
<path style="stroke: none; stroke-width: 1; stroke-dasharray: none; stroke-linecap: butt; stroke-dashoffset: 0; stroke-linejoin: miter; stroke-miterlimit: 4; is-custom-font: none; font-file-url: none; fill: rgb(47,46,65); fill-rule: nonzero; opacity: 1;" transform=" translate(-856.482, -359.3298)" d="M 864.20247 353.08668 c -0.39941 -4.2 -5.54465 -6.78569 -9.56833 -5.517 s -6.66535 5.32011 -7.46387 9.4628 a 13.575 13.575 0 0 0 1.83057 10.24843 a 9.3394 9.3394 0 0 0 9.25733 4.0107 c 3.97942 -0.84823 6.73641 -4.73395 7.52526 -8.72557 s 0.00565 -8.10694 -0.77654 -12.09988" stroke-linecap="round"/>
</g>
		<g transform="matrix(1 0 0 1 283.8584 -179.293)">
<path style="stroke: none; stroke-width: 1; stroke-dasharray: none; stroke-linecap: butt; stroke-dashoffset: 0; stroke-linejoin: miter; stroke-miterlimit: 4; is-custom-font: none; font-file-url: none; fill: rgb(47,46,65); fill-rule: nonzero; opacity: 1;" transform=" translate(-924.482, -361.3298)" d="M 932.20247 355.08668 c -0.39941 -4.2 -5.54465 -6.78569 -9.56833 -5.517 s -6.66535 5.32011 -7.46387 9.4628 a 13.575 13.575 0 0 0 1.83057 10.24843 a 9.3394 9.3394 0 0 0 9.25733 4.0107 c 3.97942 -0.84823 6.73641 -4.73395 7.52526 -8.72557 s 0.00565 -8.10694 -0.77654 -12.09988" stroke-linecap="round"/>
</g>
		<g transform="matrix(1 0 0 1 -97.1236 171.3772)">
<path style="stroke: none; stroke-width: 1; stroke-dasharray: none; stroke-linecap: butt; stroke-dashoffset: 0; stroke-linejoin: miter; stroke-miterlimit: 4; is-custom-font: none; font-file-url: none; fill: rgb(63,61,86); fill-rule: nonzero; opacity: 1;" transform=" translate(-543.5, -712)" d="M 767.50006 697 H 750 v -3 a 4 4 0 0 0 -4 -4 H 725 a 4 4 0 0 0 -4 4 v 3 h -3 v -3 a 4 4 0 0 0 -4 -4 H 693 a 4 4 0 0 0 -4 4 v 3 h -3 v -3 a 4 4 0 0 0 -4 -4 H 661 a 4 4 0 0 0 -4 4 v 3 h -3 v -3 a 4 4 0 0 0 -4 -4 H 629 a 4 4 0 0 0 -4 4 v 3 h -3 v -3 a 4 4 0 0 0 -4 -4 H 597 a 4 4 0 0 0 -4 4 v 3 h -3 v -3 a 4 4 0 0 0 -4 -4 H 565 a 4 4 0 0 0 -4 4 v 3 h -3 v -3 a 4 4 0 0 0 -4 -4 H 533 a 4 4 0 0 0 -4 4 v 3 h -3 v -3 a 4 4 0 0 0 -4 -4 H 501 a 4 4 0 0 0 -4 4 v 3 h -3 v -3 a 4 4 0 0 0 -4 -4 H 469 a 4 4 0 0 0 -4 4 v 3 h -3 v -3 a 4 4 0 0 0 -4 -4 H 437 a 4 4 0 0 0 -4 4 v 3 h -3 v -3 a 4 4 0 0 0 -4 -4 H 405 a 4 4 0 0 0 -4 4 v 3 h -3 v -3 a 4 4 0 0 0 -4 -4 H 373 a 4 4 0 0 0 -4 4 v 3 h -3 v -3 a 4 4 0 0 0 -4 -4 H 341 a 4 4 0 0 0 -4 4 v 3 H 319.49994 A 28.49994 28.49994 0 0 0 291 725.49994 V 725.5 a 8.5 8.5 0 0 0 8.5 8.5 h 488 a 8.5 8.5 0 0 0 8.5 -8.5 v -0.00006 A 28.49994 28.49994 0 0 0 767.50006 697 Z" stroke-linecap="round"/>
</g>
</g>
</g>
</svg>